<?xml version="1.0" encoding="utf-8"?>
<!-- Generator: Adobe Illustrator 24.2.3, SVG Export Plug-In . SVG Version: 6.00 Build 0)  -->
<svg version="1.1" id="Layer_1" xmlns="http://www.w3.org/2000/svg" xmlns:xlink="http://www.w3.org/1999/xlink" x="0px" y="0px"
	 viewBox="0 0 512 512" style="enable-background:new 0 0 512 512;" xml:space="preserve">
<style type="text/css">
	.st0{fill:#CCBB2B;}
	.st1{fill:#02B7C2;}
</style>
<g>
	<path class="st0" d="M237.06,304.64c-9-1.9-17.85-4.34-26.54-7.38c-0.97-0.34-1.93-1.1-2.94-0.87c-1.1,0.26-1.59,1.48-2.34,2.28
		c-1.82,1.95-3.56,3.99-5.39,5.93c-2.01,2.12-4.41,3.73-6.99,5.08c-4.31,2.24-8.9,3.7-13.59,4.82c-5.41,1.29-10.9,2.13-16.43,2.81
		c-5.45,0.68-10.92,1.09-16.39,1.55c-5.47,0.46-10.95,0.8-16.43,1.19c-0.65,0.04-1.3,0.01-2.05,0.01c0.66,0.48,1.29,0.25,1.79,0.06
		c2.03-0.75,4.18-0.98,6.27-1.45c13.57-3.04,26.02-8.53,37.19-16.86c5.02-3.74,9.54-8.01,13.75-12.63c0.3-0.33,0.64-0.63,0.72-1.13
		c-0.53-0.66-1.35-0.86-2.07-1.21c-10.68-5.21-21.05-10.97-31.04-17.39c-10.26-6.59-19.99-13.89-28.92-22.2
		c-11.33-10.54-20.91-22.47-28.41-36.03c-3.12-5.65-6.04-11.41-8.26-17.49c-2.38-6.51-3.77-13.23-4.31-20.15
		c-0.96-12.28,1.1-24.09,5.23-35.59c3.92-10.92,9.61-20.86,17.01-29.81c5.2-6.29,11.21-11.63,18.33-15.68
		c6.94-3.94,14.2-7.05,22.02-8.78c6.05-1.34,12.17-1.9,18.35-1.46c11.86,0.85,22.72,4.74,32.7,11.15
		c8.19,5.27,15.22,11.82,21.32,19.38c10.79,13.38,17.94,28.57,22.38,45.11c1.54,5.74,2.67,11.56,3.44,17.44
		c0.69,5.3,1.15,10.62,1.1,15.97c-0.03,3.34-0.07,6.68-0.11,10.02c-0.02,1.56-0.16,3.11-0.45,4.64c-0.42-0.13-0.85-0.24-1.27-0.4
		c-4.64-1.75-9.29-3.5-13.93-5.28c-4.32-1.66-8.29-3.94-11.89-6.85c0.06-2.53-0.17-5.03-0.39-7.55c-0.52-6-1.49-11.92-2.83-17.77
		c-1.96-8.56-4.79-16.83-8.91-24.61c-3.18-6-7.04-11.52-11.99-16.22c-4.97-4.73-10.67-8.25-17.29-10.16
		c-5.63-1.62-11.35-2-17.18-1.26c-7.45,0.94-14.49,3.11-20.99,6.87c-8.03,4.64-13.89,11.26-17.61,19.76
		c-2.81,6.4-4.09,13.15-4.39,20.09c-0.15,3.48-0.05,6.96,0.28,10.45c0.49,5.11,1.35,10.14,2.61,15.1
		c2.14,8.44,5.25,16.52,9.15,24.31c8.64,17.3,20.89,31.43,36.97,42.22c9.98,6.69,20.72,11.83,32.04,15.8
		c0.35,0.12,0.7,0.26,1.05,0.35c0.3,0.08,0.59-0.01,0.76-0.3c0.3-0.51,0.62-1.01,0.9-1.53c2.31-4.24,4.39-8.58,6.21-13.05
		c4.65-11.38,7.8-23.17,9.79-35.28c0.63-0.04,1.13,0.33,1.66,0.57c7.01,3.16,14.12,6.08,21.4,8.54c0.63,0.21,1.22,0.51,1.83,0.77
		c-0.2,0.71-0.42,1.42-0.61,2.13c-3.94,14.45-9.92,28.02-17.67,40.82c-0.54,0.89-1.09,1.76-1.61,2.66
		c-0.28,0.48-0.11,0.85,0.45,0.97c2.03,0.41,4.06,0.82,6.1,1.19c4.52,0.8,9.05,1.5,13.61,2.02c2.35,0.27,4.7,0.6,7.04,0.9
		c-0.12,0.27-0.22,0.55-0.37,0.8c-3.9,6.74-7.48,13.64-10.82,20.66C237.8,303.36,237.42,303.99,237.06,304.64z"/>
	<path class="st1" d="M218.93,193.44c3.6,2.91,7.57,5.2,11.89,6.85c4.64,1.78,9.28,3.52,13.93,5.28c0.41,0.16,0.84,0.27,1.27,0.4
		c2.17,1.15,4.51,1.86,6.8,2.72c8.55,3.19,17.23,5.99,26.12,8.11c2.8,0.66,2.33,0.59,3.53-1.64c6.9-12.8,14.02-25.47,21.84-37.74
		c3.75-5.88,7.66-11.66,12.04-17.1c0.84-1.04,1.73-2.04,2.58-3.07c3.86-4.68,8.65-8.07,14.24-10.39c6.24-2.59,12.69-4.1,19.5-3.73
		c3.14,0.17,6.17,0.84,9.02,2.18c4.21,1.98,7.21,5.14,9.12,9.36c1.26,2.8,2.03,5.73,2.23,8.79c0.08,1.3,0.65,2.61,0,3.91
		c-1.27,0.17-2.5-0.17-3.74-0.31c-4.73-0.53-9.46-0.94-14.21-0.76c-4.18,0.16-8.26,0.81-12.16,2.41c-4.48,1.85-8.18,4.78-11.46,8.28
		c-3.31,3.53-6.14,7.43-8.81,11.45c-4.6,6.92-8.76,14.11-12.89,21.32c-1.7,2.96-3.33,5.96-4.97,8.95c-0.24,0.44-0.65,0.83-0.5,1.41
		c0.39,0.31,0.85,0.23,1.28,0.24c4.39,0.05,8.75-0.13,13.06-1.08c9.51-2.11,18.79-4.91,27.8-8.62c5.59-2.3,10.75-5.34,15.73-8.74
		c1.71-1.17,3.46-2.31,5.21-3.42c0.75-0.48,1.55-0.89,2.44-1.03c0.73-0.12,1.16,0.26,1.11,0.96c-0.05,0.76-0.33,1.44-0.65,2.12
		c-0.78,1.69-1.73,3.28-2.76,4.82c-4.86,7.24-10.53,13.8-16.92,19.72c-1.74,1.61-3.57,3.13-5.41,4.63
		c-6.11,4.99-13.15,7.97-20.82,9.59c-7.81,1.65-15.72,2.1-23.68,1.92c-2.3-0.05-4.6-0.13-6.9-0.27c-0.87-0.05-1.37,0.26-1.76,1.01
		c-1.21,2.3-2.47,4.56-3.71,6.85c-5.77,10.71-11.54,21.41-17.3,32.12c-0.21,0.39-0.36,0.81-0.54,1.21
		c-0.17,0.23-0.38,0.45-0.52,0.71c-4.24,7.85-8.47,15.7-12.7,23.55c-0.2,0.38-0.5,0.74-0.45,1.22c-0.14,0.17-0.33,0.32-0.43,0.51
		c-2.22,4.27-4.45,8.55-6.15,13.07c-0.63,1.67-1.17,3.37-1.25,5.17c-0.13,2.85,0.17,3.3,2.98,3.98c1.54,0.37,3.09,0.29,4.64,0.07
		c2.5-0.36,4.93-1.03,7.3-1.9c3.35-1.23,6.56-2.75,9.6-4.62c1.72-1.05,3.31-2.25,4.63-3.77c0.27,0.41,0.53,0.82,0.8,1.23
		c-3.5,2.28-6.4,5.26-9.34,8.18c-4.01,3.97-7.98,7.97-12.03,11.9c-4.21,4.09-8.55,8.02-13.24,11.56c-2.38,1.79-4.85,3.43-7.55,4.69
		c-1.08,0.51-2.18,0.91-3.36,1.13c-2.78,0.51-4.97-0.39-6.5-2.77c-0.98-1.52-1.46-3.23-1.8-4.99c-0.67-3.53-0.59-7.1-0.29-10.65
		c0.19-2.21,0.55-4.41,0.92-6.61c0.58-3.45,1.61-6.76,3-9.98c2.49-5.79,4.93-11.6,7.57-17.32c0.28-0.6,0.48-1.24,0.72-1.86
		c0.35-0.65,0.74-1.28,1.05-1.95c3.34-7.03,6.92-13.93,10.82-20.66c0.15-0.25,0.25-0.53,0.37-0.8c0.22-0.29,0.45-0.58,0.66-0.88
		c1.08-1.61,1.7-3.45,2.5-5.19c5.42-11.76,11.13-23.38,16.95-34.95c0.27-0.53,0.54-1.05,0.79-1.59c0.23-0.5,0.06-0.79-0.52-0.94
		c-0.21-0.05-0.44-0.08-0.65-0.12c-5.81-1.13-11.56-2.54-17.26-4.13c-3.27-0.92-6.52-1.92-9.78-2.89c-0.61-0.26-1.21-0.56-1.83-0.77
		c-7.29-2.47-14.39-5.39-21.4-8.54c-0.53-0.24-1.03-0.61-1.66-0.57c-0.65-0.35-1.29-0.72-1.96-1.03c-4.09-1.94-8.14-3.95-12.12-6.12
		c-6.78-3.7-13.36-7.72-19.4-12.58c-3.89-3.13-7.49-6.54-10.37-10.65c-2.39-3.4-3.92-7.1-4.38-11.27c-0.31-2.81-0.39-5.62-0.44-8.44
		c-0.17-9.73,0.63-19.42,1.26-29.12c0.01-0.22,0.03-0.44,0.06-0.66c0.12-0.76,0.63-1.01,1.26-0.61c0.88,0.57,1.58,1.35,2.27,2.12
		c2.39,2.65,4.52,5.5,6.68,8.34c6.35,8.32,12.69,16.64,19.61,24.5c4.37,4.96,8.92,9.75,13.92,14.08
		C215.25,190.7,216.94,192.26,218.93,193.44z"/>
	<path class="st0" d="M173.88,289.64c-5.91,6.29-12.78,11.26-20.61,14.9c-6.56,3.05-13.44,5.01-20.61,6.1
		c-5.91,0.89-11.84,1.13-17.76,0.7c-16.55-1.18-31.8-6.25-45.38-15.92c-7.27-5.18-13.37-11.5-18-19.19
		c-2.93-4.87-4.95-10.11-6.33-15.61c-1.39-5.55-2.33-11.16-2.81-16.87c-0.4-4.67-0.45-9.34-0.24-14.01
		c0.25-5.56,0.92-11.08,1.87-16.57c2.32-13.41,6.28-26.38,10.71-39.21c2.13-6.17,4.35-12.3,6.52-18.46
		c0.17-0.47,0.53-0.92,0.25-1.46c-0.32-0.13-0.56,0.08-0.78,0.22c-6.68,4.29-13.49,8.38-19.86,13.14c-2.68,2-5.27,4.1-7.78,6.31
		c-0.79,0.69-1.61,1.33-2.56,1.76c-1.73,0.8-2.88,0.21-3.3-1.63c-0.38-1.65,0.02-3.25,0.37-4.84c0.96-4.39,2.88-8.41,5.13-12.27
		c4.03-6.94,9.23-12.89,15.47-17.94c1.9-1.54,3.8-3.09,5.69-4.65c0.51-0.42,1-0.88,1.48-1.34c0.08-0.07,0.08-0.3,0.03-0.41
		c-0.05-0.09-0.23-0.19-0.34-0.17c-0.21,0.04-0.43,0.13-0.61,0.24c-7.66,4.86-15.1,10.01-21.36,16.65
		c-4.93,5.23-9.06,10.99-11.65,17.74c-2.89,7.52-4.19,15.3-3.41,23.34c0.41,4.26,1.68,8.28,4.37,11.73
		c0.23,0.29,0.45,0.59,0.68,0.88c0.37,0.47,0.33,0.97,0.1,1.47c-0.28,0.62-0.71,1.13-1.21,1.57c-1.59,1.39-3.05,1.29-4.42-0.32
		c-1.55-1.83-2.72-3.9-3.5-6.16c-1.97-5.76-3.53-11.62-4.16-17.71c-0.38-3.71-0.48-7.41-0.25-11.11
		c0.65-10.08,2.97-19.78,7.23-28.96c3.8-8.19,9.56-14.77,16.86-20.06c4.77-3.45,9.88-6.28,15.26-8.67
		c5.77-2.56,11.73-4.59,17.69-6.65c3.57-1.24,7.13-2.51,10.61-4c3.29-1.41,6.42-3.08,9.27-5.25c0.61-0.46,1.21-0.97,2-0.52
		c0.69,0.39,0.6,1.13,0.61,1.79c0.03,3.26,0.16,6.52,0.34,9.78c0.36,6.61-0.61,13.01-3.21,19.14c-0.29,0.68-0.54,1.38-0.72,2.1
		c-1.87,7.49-4.43,14.77-6.94,22.06c-3.14,9.11-6.33,18.2-9.1,27.44c-2.17,7.25-4.1,14.56-5.51,21.99
		c-1.07,5.68-1.8,11.41-2.12,17.2c-0.22,4.09-0.11,8.17,0.26,12.22c0.67,7.38,2.72,14.41,5.83,21.12
		c5.34,11.53,13.17,21.09,23.05,29.02c1.04,0.84,2.12,1.62,3.19,2.42c0.1,0.08,0.27,0.07,0.45,0.11c0.21-0.46-0.23-0.62-0.43-0.83
		c-2.26-2.36-4.35-4.87-6.35-7.46c-5.25-6.81-8.67-14.46-10.65-22.8c-1.49-6.28-2.69-12.61-4.01-18.92
		c-0.68-3.26-1.38-6.52-2.08-9.79c-0.09-0.43-0.24-0.86-0.1-1.31c0.13,0,0.32-0.06,0.39,0.01c2.32,2.11,4.97,3.75,7.62,5.4
		c5.17,3.21,10.34,6.42,15.21,10.07c5.66,4.25,10.86,8.98,15.23,14.59c5.43,6.97,9.08,14.74,10.72,23.44
		c0.51,2.7,0.81,5.44,0.87,8.18c0.08,3.23-0.37,6.37-2.27,9.13c-0.08,0.11-0.09,0.27-0.13,0.41c0.25,0.41,0.67,0.56,1.07,0.75
		c5.7,2.72,11.71,4.19,18.03,4.33c3.04,0.07,6.09,0.11,9.13-0.01c5.05-0.19,10.05-0.9,14.9-2.37c3.71-1.12,7.22-2.69,10.35-5.03
		c0.53-0.4,1.14-0.68,1.71-1.02L173.88,289.64z"/>
	<path class="st0" d="M256.82,307.62c-0.05-0.48,0.25-0.84,0.45-1.22c4.22-7.85,8.46-15.7,12.7-23.55c0.14-0.25,0.34-0.47,0.52-0.71
		c5.12,0.06,10.24,0.08,15.35-0.34c2.51-0.21,5.03-0.29,7.55-0.52c3.91-0.37,7.82-0.81,11.72-1.31c3.97-0.51,7.92-1.15,11.87-1.81
		c6.29-1.05,12.53-2.34,18.73-3.81c20.09-4.76,39.68-11.09,58.79-18.9c11.54-4.72,22.75-10.15,33.79-15.95
		c8.87-4.66,17.57-9.62,26.11-14.85c2.98-1.83,6.14-3.29,9.54-4.2c4.62-1.23,9.12-1.05,13.4,1.23c2.59,1.38,4.71,3.33,6.57,5.59
		c2.76,3.35,4.88,7.09,6.7,10.99c2,4.3,3.89,8.66,5.83,12.99c0.76,1.69,1.62,3.33,2.65,4.88c1.22,1.84,2.63,3.43,5.02,3.67
		c0.2,0.02,0.43,0.19,0.3,0.47c-0.09,0.19-0.2,0.42-0.37,0.5c-0.25,0.13-0.57,0.21-0.85,0.19c-5.52-0.35-10.2-2.38-13.67-6.85
		c-1.23-1.59-2.32-3.26-3.26-5.04c-0.93-1.77-1.82-3.57-2.73-5.35c-0.71-1.39-1.51-2.73-2.47-3.96c-1.23-1.58-2.8-2.63-4.81-2.97
		c-1.37-0.23-2.66,0.16-3.94,0.51c-1.44,0.39-2.76,1.09-4.05,1.81c-13.04,7.22-26.06,14.5-39.14,21.65
		c-10.61,5.8-21.17,11.69-32.05,16.98c-14.29,6.94-28.95,12.98-44.05,17.94c-10.57,3.48-21.31,6.35-32.22,8.52
		c-6.62,1.32-13.28,2.4-19.99,3.11c-4.87,0.52-9.75,0.9-14.64,1.11c-4.31,0.18-8.61,0.34-12.91,0.21
		C267.77,308.49,262.28,308.27,256.82,307.62z"/>
	<path class="st1" d="M284.75,94.51c14.26-0.15,25.63,11.91,25.55,25.68c-0.08,13.31-10.73,25.45-25.57,25.48
		c-14.8,0.03-25.73-11.92-25.66-25.6C259.16,104.53,272.01,94.23,284.75,94.51z"/>
	<path class="st0" d="M326.47,307.52c22.13-5.51,44.25-11.03,66.51-16.57c-0.42,0.73-1.04,0.83-1.57,1.06
		c-8.96,3.92-17.92,7.83-26.88,11.73c-6.72,2.93-13.45,5.86-20.17,8.79c-0.48,0.21-0.94,0.44-1.42,0.63
		c-1.86,0.7-3.58,0.84-5.51-0.18c-3.2-1.7-6.58-3.05-9.89-4.55C327.14,308.24,326.67,308.17,326.47,307.52z"/>
	<path class="st0" d="M278.96,321.35c-0.27-0.41-0.53-0.82-0.8-1.23c0-0.42,0.26-0.68,0.55-0.91c1.5-1.21,3.04-2.38,4.51-3.62
		c0.67-0.56,1.47-0.69,2.26-0.84c2.62-0.51,5.25-0.96,7.87-1.44c4.52-0.81,9.04-1.62,13.56-2.44c5.03-0.91,10.06-1.81,15.08-2.75
		c0.63-0.12,1.15-0.08,1.69,0.27c3.18,2.05,6.37,4.08,9.54,6.13c0.11,0.07,0.15,0.24,0.23,0.37c-0.6,0.34-1.27,0.38-1.92,0.46
		c-5.74,0.65-11.49,1.28-17.23,1.95c-5.67,0.66-11.33,1.38-17,2.04c-4.49,0.52-8.99,1.01-13.48,1.5
		C282.2,321.01,280.58,321.18,278.96,321.35z"/>
	<path class="st0" d="M83.11,390.29c-0.2,1.13-0.29,2.02-0.51,2.87c-0.57,2.16-1.87,3.24-4.1,3.44c-1.5,0.14-2.96-0.1-4.37-0.62
		c-0.41-0.15-0.54-0.47-0.45-0.89c0.14-0.67,0.5-1.03,0.99-0.96c0.59,0.09,1.17,0.22,1.75,0.32c0.66,0.11,1.32,0.15,1.99,0
		c1.33-0.29,2.11-1.02,2.33-2.35c0.11-0.65,0.1-1.33,0.1-2c0.01-3.27,0-6.53,0.01-9.8c0-0.52-0.01-1.04,0.01-1.56
		c0.04-0.79,0.29-1,1.13-0.96c0.68,0.03,0.91,0.23,0.92,0.96c0.02,2.15,0.01,4.3,0.02,6.46c0,0.67-0.01,1.34,0.02,2
		c0.04,0.73,0.24,0.99,0.9,0.99c2.15,0.02,4.31,0.02,6.46,0c0.53,0,0.8-0.35,0.81-0.87c0.02-2.3,0.02-4.6,0.03-6.9
		c0-0.67-0.01-1.34,0.05-2c0.05-0.57,0.51-0.65,0.98-0.64c0.45,0,0.93,0.03,1,0.62c0.06,0.51,0.05,1.04,0.05,1.56
		c0.01,2.3-0.01,4.6,0.01,6.9c0.01,1.19,0.14,1.34,1.23,1.36c1.41,0.02,2.82,0,4.23-0.02c0.53-0.01,0.8-0.33,0.81-0.85
		c0.02-0.59,0.02-1.19,0.02-1.78c0-2.23-0.01-4.45,0.01-6.68c0.01-0.95,0.28-1.15,1.21-1.1c0.54,0.03,0.83,0.3,0.83,0.82
		c0.02,2.08,0,4.16,0.03,6.23c0.04,3.9-0.5,3.34,3.46,3.39c0.74,0.01,1.48-0.02,2.22-0.08c0.32-0.02,0.54-0.26,0.57-0.58
		c0.05-0.52,0.06-1.04,0.06-1.55c0.01-2.37-0.01-4.75,0.01-7.12c0.01-0.96,0.27-1.17,1.2-1.11c0.42,0.03,0.72,0.2,0.76,0.63
		c0.04,0.59,0.04,1.19,0.05,1.78c0.01,2.23-0.01,4.45,0.02,6.68c0.02,1.12,0.21,1.28,1.3,1.34c0.44,0.02,0.89,0.01,1.34,0.01
		c9.06,0,18.11,0,27.17,0c2.58,0,2.46,0.07,2.46-2.4c0-4.75,0-9.5,0-14.25c0-0.59-0.01-1.19,0.02-1.78
		c0.03-0.64,0.31-0.85,1.03-0.84c0.7,0.01,0.95,0.2,0.95,0.92c0.01,6.53,0,13.06-0.02,19.59c0,0.21-0.12,0.42-0.2,0.69
		c-1.99,0.24-3.99,0.08-5.98,0.11c-2.08,0.03-4.16,0.01-6.24,0.01c-2,0-4.01,0-6.01,0c-2,0-4.01,0-6.01,0c-2.08,0-4.16,0-6.24,0
		c-2,0-4.01,0-6.01,0c-2,0-4.01,0-6.01,0c-2,0-4.01,0-6.01,0c-2.08,0-4.16,0-6.24,0C87.24,390.29,85.25,390.29,83.11,390.29z"/>
	<path class="st0" d="M244.86,388.24c-0.68-0.97-1.11-1.56-1.51-2.16c-1.01-1.54-1.5-3.22-1.28-5.07c0.18-1.5,0.91-2.69,2.28-3.35
		c2.65-1.28,5.19-0.85,7.62,0.64c0.45,0.28,0.52,1,0.22,1.62c-0.11,0.23-0.34,0.31-0.55,0.24c-0.49-0.18-0.96-0.4-1.43-0.61
		c-1.19-0.55-2.45-0.6-3.71-0.44c-1.51,0.18-2.38,1.18-2.41,2.7c-0.02,0.75,0.1,1.49,0.44,2.16c1.31,2.63,3.12,4.52,6.37,4.28
		c0.44-0.03,0.89-0.02,1.34,0.01c0.78,0.05,1.21,0.86,0.84,1.62c-0.08,0.16-0.32,0.34-0.49,0.35c-0.66,0.06-1.33,0.06-2,0.06
		c-17.52,0-35.05,0-52.57,0c-0.82,0-1.63,0-2.4,0c-0.37,0.48-0.03,0.72,0.19,1c0.28,0.34,0.61,0.66,0.82,1.04
		c1.57,2.8-0.56,5.19-2.74,5.12c-3.34-0.11-6.68,0.05-10.02-0.06c-3.29-0.11-6.06-2.79-6.34-6.08c-0.15-1.69-0.06-3.41-0.04-5.12
		c0.01-0.65,0.29-0.84,1.03-0.84c0.71,0.01,0.98,0.21,1,0.88c0.03,1.34,0.08,2.67,0.01,4.01c-0.13,2.56,1.83,5.13,4.97,5.15
		c2.9,0.02,5.79,0.01,8.69,0c0.67,0,1.39-0.01,1.73-0.73c0.38-0.81-0.07-1.43-0.6-1.97c-1.45-1.49-2.92-2.96-4.38-4.44
		c-0.42-0.42-0.84-0.84-1.25-1.27c-0.51-0.55-0.49-0.73,0.05-1.3c0.6-0.63,0.83-0.64,1.46-0.04c0.54,0.51,1.09,1.02,1.56,1.58
		c0.68,0.81,1.52,1.12,2.56,1.03c0.29-0.03,0.59,0,0.89,0c15.67,0,31.33,0,47,0C242.94,388.24,243.68,388.24,244.86,388.24z"/>
	<path class="st0" d="M389.67,388.04c0.17-0.44-0.09-0.74-0.27-1.05c-0.66-1.16-1.34-2.31-2-3.47c-0.26-0.45-0.53-0.9-0.72-1.38
		c-0.84-2.1,0.42-4.24,2.66-4.33c2.74-0.11,5.49-0.1,8.23-0.01c2.38,0.08,3.7,2.3,2.67,4.43c-0.74,1.53-1.67,2.97-2.53,4.44
		c-0.72,1.24-0.67,1.56,0.76,1.55c2.89-0.02,5.79,0.01,8.68-0.01c1.45-0.01,1.54-0.1,1.56-1.48c0.02-2.22,0.01-4.45,0.01-6.67
		c0-0.52,0.01-1.04,0.03-1.56c0.02-0.58,0.42-0.71,0.91-0.72c0.75-0.02,1.05,0.18,1.12,0.75c0.01,0.07,0.02,0.15,0.02,0.22
		c0,3.49,0.01,6.97-0.01,10.46c0,0.88-0.17,1.02-1.05,1.06c-0.67,0.03-1.34,0.01-2,0.01c-16.4,0-32.79,0-49.19,0.01
		c-0.8,0-1.63-0.18-2.45,0.24c-0.07,0.65-0.1,1.31-0.21,1.96c-0.43,2.67-1.98,4.04-4.68,4.14c-0.37,0.01-0.74-0.02-1.11-0.06
		c-1.04-0.11-1.26-0.5-0.83-1.47c0.13-0.29,0.31-0.5,0.66-0.48c0.59,0.03,1.17,0.04,1.76-0.13c1.29-0.38,2.01-1.22,2.17-2.53
		c0.07-0.59,0.05-1.18,0.05-1.78c0-3.49,0-6.97,0-10.46c0-0.3-0.01-0.59,0.01-0.89c0.04-0.9,0.34-1.13,1.26-1.05
		c0.41,0.04,0.72,0.21,0.76,0.64c0.05,0.59,0.04,1.18,0.05,1.78c0.01,2.3,0,4.6,0.02,6.9c0.01,0.88,0.21,1.06,1.03,1.11
		c0.52,0.03,1.04,0.02,1.56,0.02c9.64,0,19.29,0,28.93-0.01C388.25,388.23,389,388.39,389.67,388.04z M393.59,379.71
		C393.59,379.71,393.59,379.72,393.59,379.71c-1.26,0.01-2.52-0.05-3.77,0.02c-1.12,0.06-1.63,0.87-1.11,1.84
		c1.11,2.09,2.27,4.15,3.49,6.17c0.55,0.9,2.06,0.85,2.63-0.08c1.19-1.96,2.34-3.94,3.43-5.95c0.6-1.1,0.12-1.92-1.12-1.99
		C395.95,379.66,394.77,379.71,393.59,379.71z"/>
	<path class="st0" d="M46.23,390.29c-7.27,0-14.55,0-21.82,0c-0.59,0-1.19,0.01-1.78-0.01c-0.83-0.04-0.97-0.2-1.01-1.1
		c-0.02-0.44-0.01-0.89-0.01-1.34c0-5.49,0-10.98,0-16.47c0-0.59-0.01-1.19,0.06-1.78c0.06-0.57,0.54-0.63,1-0.62
		c0.46,0,0.92,0.07,0.97,0.66c0.05,0.59,0.05,1.18,0.05,1.78c0,4.6,0,9.2,0,13.8c0,0.45-0.01,0.89,0,1.34
		c0.03,1.61,0.07,1.65,1.58,1.69c0.3,0.01,0.59,0,0.89,0c8.53,0,17.07,0,25.6,0c2.54,0,2.47,0.07,2.47-2.41c0-4.75,0-9.5,0-14.24
		c0-0.52-0.01-1.04,0.01-1.56c0.04-0.91,0.35-1.15,1.27-1.05c0.43,0.04,0.7,0.25,0.72,0.68c0.03,0.59,0.04,1.19,0.04,1.78
		c0,3.49,0,6.97,0,10.46c0,0.59,0.02,1.18,0.06,1.78c0.02,0.3,0.42,0.5,0.65,0.33c0.83-0.63,1.65-1.26,2.45-1.91
		c1.33-1.08,2.66-2.13,4.16-2.97c0.85-0.47,1.73-0.85,2.68-1.05c3.22-0.69,6.26,1.31,6.66,4.57c0.2,1.61,0.16,3.26,0.05,4.89
		c-0.11,1.66-1.26,2.63-2.95,2.75c-0.52,0.03-1.04,0.01-1.56,0.01C61.07,390.29,53.65,390.29,46.23,390.29z M62.97,388.34
		C62.97,388.34,62.97,388.35,62.97,388.34c1.85,0.01,3.7,0.02,5.54,0c0.51,0,1.04-0.03,1.54-0.12c0.57-0.1,0.91-0.48,0.92-1.08
		c0.01-1.4,0.09-2.81-0.03-4.21c-0.15-1.71-1.58-2.9-3.32-2.93c-0.75-0.01-1.46,0.11-2.16,0.41c-0.96,0.41-1.85,0.95-2.66,1.58
		c-1.87,1.44-3.71,2.93-5.56,4.41c-0.23,0.18-0.45,0.38-0.65,0.6c-0.2,0.22-0.31,0.5-0.23,0.82c0.11,0.45,0.47,0.53,0.85,0.53
		C59.12,388.34,61.04,388.34,62.97,388.34z"/>
	<path class="st0" d="M433.59,387.95c-0.44-0.77-0.88-1.51-1.28-2.28c-0.61-1.19-1.15-2.41-1.79-3.58c-1.31-2.41-2.14-2.68-4.66-1.6
		c-0.14,0.06-0.26,0.18-0.4,0.2c-0.57,0.09-0.73-0.38-0.97-0.75c-0.22-0.35-0.26-0.69,0.12-0.96c0.66-0.49,1.38-0.91,2.18-1.08
		c1.64-0.35,3.08-0.01,4.23,1.31c0.69,0.79,1.18,1.7,1.64,2.63c0.46,0.93,0.85,1.9,1.34,2.81c0.42,0.78,0.9,1.54,1.43,2.25
		c0.6,0.81,1.45,1.26,2.47,1.3c0.52,0.02,1.04,0.04,1.56,0.04c5.94,0,11.87,0,17.81,0c0.3,0,0.59,0.01,0.89-0.01
		c1.35-0.05,1.45-0.15,1.49-1.6c0.02-0.82-0.02-1.63,0.01-2.45c0.1-2.48,1.21-4.03,3.56-4.82c2.55-0.86,4.97-0.44,7.25,0.92
		c0.56,0.33,0.83,0.81,0.83,1.47c0,1.56,0.04,3.12,0,4.67c-0.09,3.71-2.58,5.87-6.27,5.46c-1.18-0.13-2.35-0.41-3.36-1.07
		c-0.66-0.43-1.35-0.53-2.11-0.53c-9.35,0.01-18.7,0.01-28.05,0c-1.06,0-2.07,0.18-3,0.67c-1.57,0.83-2.46,2.14-2.44,3.94
		c0.02,1.83,1.06,3.03,2.67,3.76c1.4,0.63,2.88,0.63,4.37,0.46c0.73-0.08,0.88,0.05,0.92,0.59c0.05,0.78-0.12,1.13-0.64,1.22
		c-1.94,0.33-3.85,0.28-5.67-0.56c-2.29-1.06-3.63-2.85-3.71-5.37c-0.07-2.4,1.03-4.28,3.06-5.58c1.29-0.82,2.72-1.12,4.23-1.17
		C432.02,388.21,432.77,388.4,433.59,387.95z M469.24,384.76c0-0.74-0.01-1.47,0-2.21c0.01-0.51-0.28-0.84-0.71-1.02
		c-1.62-0.69-3.27-0.86-4.94-0.14c-1.19,0.51-1.88,1.39-1.9,2.72c-0.01,0.88-0.01,1.77-0.01,2.65c0.02,2.07,0.13,2.19,2.05,2.81
		c0.94,0.3,1.89,0.35,2.84,0.22c1.48-0.19,2.53-1.33,2.64-2.82C469.29,386.24,469.25,385.5,469.24,384.76z"/>
	<path class="st0" d="M287.68,379.78c0,2.74,0,5.49,0,8.23c0,0.52-0.01,1.04-0.03,1.56c-0.02,0.43-0.26,0.68-0.68,0.7
		c-0.59,0.03-1.19,0.02-1.78,0.02c-3.93,0-7.86,0-11.79,0c-0.59,0-1.19,0.01-1.78,0.05c-0.33,0.02-0.53,0.23-0.57,0.56
		c-0.06,0.51-0.06,1.04-0.16,1.55c-0.46,2.42-1.89,3.76-4.33,4.11c-2.11,0.3-4.13-0.1-6.11-0.79c-0.39-0.14-0.6-0.4-0.48-0.85
		c0.19-0.7,0.53-1.05,1-0.95c0.94,0.2,1.87,0.45,2.81,0.64c1.04,0.21,2.06,0.17,3.06-0.23c1.44-0.57,2.27-2.02,2.01-3.56
		c-0.04-0.23-0.18-0.41-0.42-0.44c-0.37-0.05-0.74-0.07-1.11-0.07c-1.33-0.01-2.67,0.03-4-0.02c-2.42-0.08-3.79-1.48-3.88-3.94
		c-0.03-0.81,0-1.63,0-2.45c0.01-3.59,2.5-7.09,7.89-5.89c0.43,0.1,0.85,0.25,1.27,0.41c2.36,0.89,2.39,0.93,2.39,3.53
		c0,1.78-0.01,3.56,0.02,5.34c0.01,0.66,0.28,0.88,0.97,0.94c0.15,0.01,0.3,0.02,0.44,0.02c3.93,0,7.86,0.01,11.79-0.01
		c1.28-0.01,1.43-0.16,1.43-1.4c0.02-4.6,0.01-9.19,0.01-13.79c0-1.04-0.02-2.08,0.02-3.11c0.02-0.79,0.3-1,1.14-0.96
		c0.57,0.03,0.8,0.22,0.84,0.8c0.03,0.52,0.02,1.04,0.02,1.56C287.68,374.14,287.68,376.96,287.68,379.78z M269.03,384.49
		c0.01,0,0.01,0,0.02,0c0-0.59,0-1.18,0-1.77c-0.01-1.81,0.25-2.11-2.08-2.73c-0.43-0.11-0.86-0.23-1.3-0.26
		c-1.95-0.13-3.62,1.13-4.04,3.05c-0.24,1.09-0.3,2.2-0.21,3.31c0.12,1.55,0.67,2.15,2.2,2.23c1.47,0.08,2.96,0.03,4.44,0
		c0.68-0.01,0.94-0.27,0.97-0.95C269.06,386.41,269.03,385.45,269.03,384.49z"/>
	<path class="st0" d="M509.25,411.4c-0.53,1.16-0.89,1.88-1.2,2.61c-1.88,4.43-3.75,8.87-5.62,13.31c-0.2,0.48-0.43,0.94-0.62,1.43
		c-0.2,0.53-0.54,0.92-1.12,0.94c-0.69,0.02-1.06-0.43-1.28-1.04c-0.13-0.35-0.27-0.69-0.41-1.03c-1.95-4.65-3.89-9.3-5.86-13.93
		c-0.27-0.64-0.4-1.4-1.08-1.9c-0.39,0.82-0.22,1.56-0.22,2.28c0.02,4.52,0.07,9.04,0.09,13.57c0,0.59-0.04,1.18-0.14,1.75
		c-0.02,0.14-0.32,0.33-0.5,0.34c-0.18,0.01-0.44-0.12-0.56-0.27c-0.29-0.37-0.21-0.85-0.22-1.29c-0.03-2.08-0.05-4.15-0.07-6.23
		c-0.05-4.15-0.11-8.3-0.16-12.45c-0.01-0.59-0.01-1.19,0.01-1.78c0.01-0.4,0.2-0.73,0.6-0.83c0.49-0.12,0.88,0.08,1.11,0.52
		c0.21,0.39,0.36,0.81,0.54,1.22c2.01,4.7,4.01,9.4,6.02,14.11c0.46,1.09,0.93,2.18,1.39,3.27c0.14,0.35,0.29,0.68,0.72,0.89
		c0.64-0.52,0.81-1.34,1.12-2.06c2.18-5.11,4.33-10.24,6.5-15.35c0.32-0.75,0.66-1.49,1.02-2.22c0.19-0.38,0.56-0.46,0.95-0.38
		c0.39,0.08,0.68,0.32,0.73,0.72c0.05,0.36,0.05,0.74,0.05,1.11c0.03,6.45,0.05,12.9,0.07,19.35c0,0.37-0.01,0.74-0.05,1.11
		c-0.03,0.33-0.26,0.56-0.56,0.59c-0.4,0.04-0.75-0.2-0.81-0.6c-0.08-0.58-0.08-1.18-0.08-1.77c-0.01-4.45,0-8.9-0.01-13.34
		C509.61,413.3,509.73,412.55,509.25,411.4z"/>
	<path class="st0" d="M174.27,427.15c0.47-1.73,0.95-3.44,1.4-5.15c1.08-4.09,2.14-8.18,3.21-12.27c0.11-0.43,0.23-0.86,0.37-1.28
		c0.12-0.37,0.34-0.68,0.76-0.71c0.57-0.04,0.74,0.41,0.87,0.84c0.15,0.5,0.27,1,0.41,1.5c1.37,5.09,2.74,10.17,4.1,15.26
		c0.15,0.57,0.21,1.17,0.7,1.77c0.43-0.42,0.53-0.97,0.7-1.47c1.82-5.57,3.64-11.14,5.46-16.71c0.21-0.63,0.44-1.26,0.73-1.85
		c0.14-0.28,0.49-0.34,0.77-0.16c0.17,0.11,0.37,0.31,0.38,0.49c0.02,0.28-0.07,0.58-0.16,0.85c-2.21,6.69-4.42,13.38-6.63,20.08
		c-0.21,0.64-0.39,1.4-1.19,1.43c-0.98,0.04-1.11-0.82-1.3-1.53c-1.26-4.58-2.52-9.15-3.78-13.73c-0.2-0.72-0.4-1.43-0.6-2.14
		c-0.09-0.3-0.26-0.53-0.71-0.6c-0.63,2.33-1.28,4.68-1.9,7.03c-0.78,2.94-1.54,5.88-2.33,8.82c-0.15,0.57-0.32,1.15-0.58,1.67
		c-0.33,0.65-1.3,0.67-1.67,0.06c-0.23-0.38-0.4-0.8-0.54-1.21c-2.19-6.46-4.37-12.93-6.54-19.4c-0.14-0.41-0.24-0.85-0.28-1.29
		c-0.03-0.34,0.26-0.55,0.56-0.58c0.19-0.02,0.51,0.08,0.58,0.22c0.26,0.53,0.47,1.08,0.66,1.65c1.86,5.63,3.72,11.27,5.58,16.91
		C173.5,426.18,173.5,426.84,174.27,427.15z"/>
	<path class="st0" d="M331.17,390.28c-4.01,0-8.01,0-12.02,0c-0.59,0-1.19,0.01-1.78,0.03c-0.44,0.02-0.65,0.28-0.7,0.7
		c-0.07,0.51-0.12,1.03-0.21,1.54c-0.47,2.61-2.11,4.04-4.75,4.09c-1.34,0.03-2.66-0.23-3.92-0.68c-0.4-0.14-0.57-0.42-0.44-0.86
		c0.22-0.76,0.49-1.06,0.97-0.99c0.59,0.09,1.16,0.24,1.75,0.31c0.51,0.07,1.04,0.13,1.55,0.09c1.7-0.14,2.57-0.91,2.84-2.59
		c0.14-0.87,0.16-1.77,0.17-2.66c0.02-3.04,0.01-6.08,0.01-9.12c0-0.52-0.01-1.04,0.02-1.56c0.04-0.65,0.28-0.83,1.03-0.82
		c0.7,0.01,0.93,0.19,0.94,0.92c0.03,1.93,0.01,3.85,0.02,5.78c0,0.82-0.02,1.63,0.01,2.45c0.04,1.07,0.22,1.24,1.35,1.29
		c0.52,0.02,1.04,0.01,1.56,0.01c7.12,0,14.24,0,21.36,0c0.67,0,1.33-0.01,2-0.05c0.42-0.03,0.67-0.29,0.69-0.71
		c0.03-0.59,0.04-1.18,0.04-1.78c0.01-2.3-0.01-4.6,0.02-6.89c0.01-0.86,0.38-1.11,1.3-1c0.41,0.05,0.68,0.24,0.73,0.68
		c0.02,0.22,0.03,0.44,0.03,0.67c0,3.26,0.01,6.52,0,9.79c-0.01,1.28-0.07,1.35-1.44,1.35
		C339.92,390.29,335.55,390.28,331.17,390.28z"/>
	<path class="st0" d="M58.78,426.29c0.31-0.73,0.2-1.31,0.2-1.87c-0.04-5.04-0.11-10.08-0.15-15.12c-0.01-0.66,0.04-1.33,0.13-1.98
		c0.04-0.32,0.37-0.46,0.68-0.46c0.33,0,0.58,0.21,0.59,0.53c0.07,1.33,0.14,2.66,0.15,4c0.04,5.48,0.07,10.97,0.07,16.45
		c0,0.68,0.33,1.66-0.67,1.87c-0.93,0.2-1.16-0.77-1.53-1.36c-3.29-5.29-6.54-10.59-9.83-15.88c-0.36-0.57-0.43-1.45-1.36-1.53
		c-0.39,0.6-0.21,1.27-0.2,1.9c0.01,4.89,0.05,9.78,0.08,14.68c0,0.59,0,1.19-0.06,1.77c-0.03,0.32-0.29,0.53-0.63,0.45
		c-0.19-0.04-0.44-0.18-0.52-0.35c-0.12-0.26-0.14-0.57-0.15-0.86c-0.05-1.85-0.1-3.7-0.13-5.56c-0.07-4.52-0.13-9.04-0.2-13.56
		c-0.01-0.59-0.01-1.19,0.02-1.78c0.02-0.4,0.24-0.7,0.64-0.8c0.38-0.1,0.76-0.02,1,0.31c0.39,0.54,0.76,1.1,1.1,1.66
		c3.15,5.2,6.28,10.4,9.43,15.6C57.78,425.03,58.09,425.69,58.78,426.29z"/>
	<path class="st0" d="M276.81,418.2c0,3.11,0,6.23,0,9.34c0,0.52-0.01,1.04-0.04,1.55c-0.02,0.33-0.24,0.55-0.53,0.64
		c-0.29,0.08-0.61,0-0.8-0.25c-0.36-0.47-0.7-0.96-1.01-1.46c-1.91-3.09-3.81-6.18-5.72-9.27c-1.36-2.21-2.72-4.42-4.08-6.63
		c-0.19-0.31-0.4-0.62-0.62-0.92c-0.13-0.18-0.31-0.35-0.54-0.22c-0.1,0.06-0.19,0.23-0.2,0.35c-0.03,0.52-0.03,1.04-0.02,1.56
		c0.04,4.89,0.09,9.79,0.12,14.68c0,0.59-0.01,1.19-0.08,1.77c-0.02,0.16-0.27,0.37-0.45,0.42c-0.3,0.08-0.62-0.04-0.73-0.35
		c-0.12-0.34-0.19-0.71-0.19-1.08c-0.09-6.67-0.17-13.34-0.25-20.01c0-0.22,0-0.44,0.02-0.67c0.03-0.4,0.22-0.71,0.63-0.81
		c0.38-0.09,0.76,0,1,0.32c0.31,0.41,0.59,0.85,0.86,1.29c2.99,4.95,5.98,9.9,8.97,14.84c0.38,0.63,0.69,1.31,1.28,1.8
		c0.2,0.16,0.64,0.05,0.75-0.18c0.3-0.64,0.18-1.31,0.17-1.97c-0.03-4.45-0.08-8.9-0.12-13.34c-0.01-0.59-0.01-1.19,0.01-1.78
		c0.01-0.21,0.1-0.43,0.2-0.62c0.16-0.28,0.45-0.41,0.75-0.32c0.18,0.06,0.42,0.26,0.45,0.43c0.09,0.51,0.1,1.03,0.1,1.54
		c0.01,3.11,0,6.23,0,9.34C276.77,418.2,276.79,418.2,276.81,418.2z"/>
	<path class="st0" d="M434.13,418.12c1.19,0,2.38-0.05,3.56,0.02c0.85,0.05,1.19,0.44,1.24,1.29c0.17,2.85-0.51,5.46-2.32,7.7
		c-2.83,3.51-7.61,3.67-10.72,0.4c-1.1-1.15-1.84-2.52-2.32-4.01c-1.25-3.9-1.08-7.75,0.55-11.52c0.6-1.38,1.45-2.59,2.62-3.55
		c3.05-2.51,7.43-2.09,9.95,0.95c0.72,0.86,1.25,1.84,1.58,2.92c0.04,0.14,0.1,0.28,0.11,0.43c0.03,0.43-0.2,0.72-0.57,0.85
		c-0.32,0.11-0.58-0.07-0.72-0.36c-0.27-0.61-0.47-1.25-0.78-1.84c-1.28-2.4-3.49-3.44-6.15-2.93c-1.63,0.32-2.79,1.33-3.72,2.63
		c-1.1,1.54-1.74,3.28-2.05,5.13c-0.48,2.93-0.18,5.77,1.24,8.43c0.46,0.86,1.05,1.62,1.76,2.28c2.23,2.04,5.48,2,7.65-0.11
		c1.83-1.77,2.37-4.05,2.4-6.49c0-0.41-0.28-0.69-0.7-0.7c-1.41-0.04-2.82-0.04-4.23-0.07c-0.67-0.01-1.33-0.02-2-0.08
		c-0.31-0.03-0.5-0.29-0.57-0.6c-0.08-0.35,0.22-0.76,0.62-0.76C431.75,418.1,432.94,418.11,434.13,418.12
		C434.13,418.11,434.13,418.12,434.13,418.12z"/>
	<path class="st0" d="M115.68,419.69c0.07,0.74,0.58,0.98,0.95,1.32c2.47,2.24,4.95,4.47,7.43,6.72c0.38,0.35,0.76,0.71,1.09,1.1
		c0.22,0.26,0.16,0.55-0.09,0.79c-0.24,0.24-0.55,0.32-0.8,0.13c-0.65-0.49-1.28-1.01-1.88-1.56c-2.42-2.18-4.83-4.38-7.26-6.57
		c-0.32-0.28-0.62-0.77-1.09-0.62c-0.65,0.22-0.41,0.87-0.41,1.35c-0.03,2.08-0.01,4.15-0.02,6.23c0,0.51,0.03,1.08-0.66,1.23
		c-0.51,0.11-0.86-0.36-0.86-1.24c0-3.34,0.01-6.67,0.03-10.01c0.01-2.82,0.02-5.64,0.04-8.45c0-0.44-0.01-0.89,0.02-1.33
		c0.1-1.66,0.38-1.95,1.98-1.99c1.94-0.05,3.86,0.13,5.73,0.64c0.64,0.17,1.28,0.4,1.88,0.69c4.15,2,3.73,6.7,1.25,8.87
		c-1.44,1.26-3.14,1.92-5,2.27C117.21,419.38,116.44,419.54,115.68,419.69z M113.67,413.16c-0.02,0-0.03,0-0.05,0
		c0,0.44,0,0.89,0,1.33c0.04,4.36-0.72,4.03,4.08,3.45c0.89-0.11,1.72-0.41,2.53-0.77c0.68-0.3,1.3-0.71,1.82-1.23
		c2.36-2.33,1.79-5.57-1.27-6.81c-2-0.81-4.13-1.09-6.3-1c-0.54,0.02-0.81,0.31-0.82,0.83
		C113.66,410.36,113.67,411.76,113.67,413.16z"/>
	<path class="st0" d="M449.88,419.69c0.02,0.63,0.46,0.83,0.78,1.12c2.58,2.34,5.16,4.67,7.73,7.02c0.38,0.34,0.73,0.73,1.02,1.15
		c0.08,0.11-0.01,0.44-0.13,0.58c-0.12,0.14-0.38,0.26-0.56,0.24c-0.47-0.04-0.76-0.43-1.08-0.72c-2.65-2.38-5.28-4.76-7.93-7.14
		c-0.48-0.43-0.99-0.84-1.45-1.23c-0.57,0.24-0.43,0.66-0.43,1c-0.02,1.93-0.01,3.85-0.01,5.78c0,0.52,0,1.04-0.03,1.55
		c-0.02,0.4-0.21,0.7-0.65,0.77c-0.42,0.07-0.76-0.28-0.79-0.84c-0.03-0.44-0.02-0.89-0.02-1.33c0.02-5.93,0.04-11.85,0.07-17.78
		c0-0.59,0.01-1.19,0.09-1.77c0.12-0.96,0.46-1.26,1.47-1.3c2.31-0.08,4.6,0.08,6.8,0.84c0.63,0.21,1.25,0.48,1.82,0.82
		c3.2,1.87,2.94,5.83,1.38,7.73c-0.77,0.94-1.71,1.64-2.8,2.15c-1.01,0.47-2.07,0.8-3.18,0.96
		C451.27,419.38,450.57,419.55,449.88,419.69z M447.87,413.11c-0.01,0-0.02,0-0.03,0c0,1.41-0.02,2.81,0.01,4.22
		c0.01,0.7,0.24,0.9,0.96,0.93c1.49,0.06,2.96-0.21,4.38-0.59c1.3-0.34,2.48-0.96,3.4-2c1.91-2.14,1.41-5.01-1.11-6.33
		c-0.2-0.1-0.39-0.22-0.6-0.29c-1.98-0.67-4.01-1.03-6.1-0.93c-0.69,0.04-0.87,0.22-0.89,0.99
		C447.85,410.44,447.87,411.78,447.87,413.11z"/>
	<path class="st0" d="M498.83,384.97c0-2,0.01-4,0-6c-0.01-1.16,0.42-1.23,1.38-1.16c0.32,0.02,0.58,0.19,0.62,0.52
		c0.05,0.51,0.06,1.03,0.06,1.55c0.01,2.3-0.01,4.59,0.01,6.89c0.01,1.3,0.14,1.45,1.36,1.46c2.07,0.03,4.15,0.03,6.22,0
		c1.31-0.02,1.43-0.13,1.45-1.38c0.03-2.3,0.01-4.59,0.01-6.89c0-0.52-0.01-1.04,0.05-1.55c0.07-0.57,0.54-0.62,1-0.62
		c0.46,0.01,0.9,0.05,0.98,0.64c0.01,0.07,0.03,0.15,0.03,0.22c0,3.56,0.01,7.11-0.01,10.67c0,0.74-0.2,0.94-0.91,0.95
		c-2.15,0.02-4.3,0.02-6.45,0.02c-0.82,0-1.63-0.01-2.45,0.01c-1.19,0.03-1.19,0.04-1.31,1.24c-0.02,0.15-0.01,0.3-0.03,0.44
		c-0.38,3.25-2.31,4.88-5.56,4.66c-0.96-0.07-1.91-0.21-2.83-0.53c-0.88-0.31-1.04-0.66-0.62-1.48c0.18-0.36,0.41-0.59,0.86-0.5
		c0.65,0.13,1.31,0.29,1.97,0.35c0.58,0.05,1.19,0.06,1.76-0.04c1.34-0.24,2.08-1,2.28-2.36c0.12-0.8,0.11-1.62,0.12-2.44
		C498.84,388.08,498.83,386.53,498.83,384.97C498.83,384.97,498.83,384.97,498.83,384.97z"/>
	<path class="st0" d="M240.48,418.27c0-2.96,0-5.93,0-8.89c0-0.44-0.02-0.89,0.03-1.33c0.08-0.79,0.47-1.17,1.29-1.26
		c0.29-0.04,0.59-0.03,0.89-0.03c3.19,0,6.37,0,9.56,0c0.3,0,0.59,0,0.89,0.03c0.42,0.04,0.69,0.27,0.74,0.68
		c0.05,0.45-0.26,0.68-0.66,0.71c-0.52,0.05-1.04,0.04-1.55,0.05c-2.37,0-4.74,0-7.12,0c-0.52,0-1.04,0.01-1.56,0.03
		c-0.51,0.02-0.86,0.28-0.87,0.81c-0.02,2.44-0.02,4.89,0,7.33c0,0.56,0.44,0.72,0.92,0.73c1.56,0.01,3.11,0.02,4.67,0.02
		c0.52,0,1.04,0,1.56,0.01c0.22,0.01,0.46,0.01,0.66,0.09c0.38,0.15,0.57,0.47,0.51,0.88c-0.05,0.31-0.26,0.55-0.58,0.57
		c-0.59,0.04-1.18,0.05-1.77,0.06c-1.63,0.01-3.26,0-4.89,0.03c-0.71,0.01-0.98,0.25-0.98,0.9c-0.01,2.52-0.01,5.04,0.02,7.56
		c0.01,0.81,0.29,1.09,1.06,1.12c1.18,0.05,2.37,0.03,3.56,0.04c2,0.01,4,0,6,0.02c0.7,0.01,1.18,0.41,1.06,0.83
		c-0.15,0.52-0.57,0.61-1.05,0.61c-3.41,0-6.82,0-10.23,0c-0.29,0-0.6-0.02-0.88-0.08c-0.54-0.13-0.94-0.44-0.98-1.05
		c-0.03-0.52-0.04-1.04-0.04-1.55c0-2.96,0-5.93,0-8.89C240.65,418.27,240.57,418.27,240.48,418.27z"/>
	<path class="st0" d="M91.04,418.42c0-2.96,0-5.93,0-8.89c0-0.52-0.02-1.04,0.03-1.55c0.07-0.68,0.46-1.06,1.14-1.16
		c0.36-0.05,0.74-0.05,1.11-0.05c3.19,0,6.38-0.01,9.57,0c0.37,0,0.75,0.01,1.09,0.12c0.28,0.09,0.43,0.38,0.43,0.71
		c0,0.36-0.21,0.56-0.53,0.59c-0.51,0.05-1.04,0.05-1.55,0.05c-2.45,0-4.89,0-7.34,0c-0.52,0-1.04,0.01-1.55,0.05
		c-0.42,0.03-0.66,0.3-0.7,0.72c-0.04,0.37-0.06,0.74-0.06,1.11c-0.01,1.7-0.01,3.41,0,5.11c0.02,1.9,0.03,1.91,2.02,1.92
		c1.56,0.01,3.11,0,4.67,0.01c0.37,0,0.75,0.02,1.1,0.12c0.39,0.12,0.57,0.48,0.51,0.88c-0.04,0.29-0.23,0.56-0.58,0.57
		c-0.52,0.02-1.04,0.04-1.55,0.04c-1.71,0.01-3.41-0.01-5.12,0.02c-0.77,0.01-0.99,0.2-0.99,0.87c-0.01,2.59-0.01,5.19,0.02,7.78
		c0.01,0.67,0.28,0.93,0.96,0.94c2.82,0.03,5.64,0.02,8.45,0.03c0.59,0,1.19,0.01,1.77,0.08c0.3,0.04,0.51,0.27,0.5,0.63
		c-0.01,0.33-0.18,0.58-0.48,0.66c-0.28,0.08-0.59,0.08-0.88,0.08c-3.26,0-6.53,0-9.79,0c-0.22,0-0.45,0-0.67-0.03
		c-0.97-0.11-1.29-0.43-1.36-1.4c-0.03-0.44-0.03-0.89-0.03-1.33c0-2.89,0-5.78,0-8.67C91.17,418.42,91.11,418.42,91.04,418.42z"/>
	<path class="st0" d="M284.47,418.28c0-2.89,0-5.78,0-8.68c0-0.52-0.03-1.04,0.03-1.56c0.08-0.77,0.51-1.16,1.31-1.26
		c0.22-0.03,0.44-0.03,0.67-0.03c3.34,0,6.68,0,10.02,0c0.29,0,0.6,0,0.88,0.08c0.3,0.09,0.45,0.35,0.48,0.67
		c0.04,0.36-0.18,0.6-0.47,0.64c-0.51,0.07-1.03,0.07-1.55,0.07c-2.52,0.01-5.05,0-7.57,0c-0.37,0-0.74-0.01-1.11,0.02
		c-0.72,0.05-0.95,0.25-1,0.91c-0.04,0.44-0.03,0.89-0.03,1.33c0,1.85-0.01,3.71,0.02,5.56c0.01,0.89,0.18,1.06,1.04,1.07
		c1.71,0.03,3.41,0.01,5.12,0.03c0.52,0,1.04,0.01,1.55,0.1c0.39,0.07,0.63,0.39,0.61,0.81c-0.02,0.43-0.32,0.67-0.73,0.67
		c-1.78,0.02-3.56,0.02-5.34,0.03c-2.43,0-2.24-0.14-2.24,2.33c0,2-0.01,4,0.03,6.01c0.02,1.09,0.21,1.28,1.32,1.29
		c2.82,0.03,5.64,0.01,8.46,0.02c0.51,0,1.04,0.03,1.54,0.13c0.32,0.06,0.47,0.39,0.41,0.69c-0.04,0.19-0.2,0.41-0.36,0.51
		c-0.17,0.1-0.42,0.11-0.64,0.11c-3.41,0.01-6.83,0.01-10.24,0c-0.29,0-0.6-0.01-0.88-0.08c-0.54-0.13-0.96-0.43-1-1.04
		c-0.04-0.52-0.06-1.04-0.06-1.55c-0.01-2.97,0-5.93,0-8.9C284.62,418.28,284.55,418.28,284.47,418.28z"/>
	<path class="st0" d="M223.74,419.67c0.24,0.87,0.72,1.13,1.09,1.47c2.41,2.2,4.83,4.38,7.25,6.57c0.38,0.35,0.77,0.69,1.12,1.08
		c0.23,0.25,0.17,0.54-0.07,0.78c-0.23,0.23-0.52,0.37-0.79,0.19c-0.49-0.33-0.93-0.72-1.37-1.12c-2.59-2.33-5.18-4.66-7.77-6.99
		c-0.28-0.25-0.55-0.5-0.84-0.73c-0.16-0.13-0.37-0.3-0.58-0.1c-0.09,0.09-0.17,0.24-0.17,0.36c-0.02,0.59-0.02,1.19-0.02,1.78
		c0,1.93,0,3.85-0.01,5.78c0,0.44-0.01,0.91-0.58,1.04c-0.47,0.11-0.85-0.31-0.85-1.02c0-1.33,0.05-2.67,0.06-4
		c0.02-5.04,0.02-10.08,0.04-15.12c0.01-2.82,0.12-2.91,2.86-2.88c1.64,0.01,3.25,0.23,4.83,0.65c0.57,0.15,1.13,0.36,1.67,0.6
		c4.41,2,3.96,6.91,1.22,9.11c-1.37,1.1-2.93,1.71-4.62,2.06C225.41,419.37,224.62,419.51,223.74,419.67z M224.05,408.11
		c-0.64,0-0.94-0.01-1.24,0c-1.02,0.04-1.18,0.16-1.19,1.16c-0.03,2.59-0.05,5.19-0.03,7.78c0,0.97,0.25,1.21,1.17,1.2
		c1.71-0.01,3.39-0.27,5.01-0.85c0.84-0.3,1.6-0.77,2.25-1.39c2.45-2.35,1.84-5.73-1.33-6.96
		C227.1,408.44,225.42,408.14,224.05,408.11z"/>
	<path class="st0" d="M399.71,418.75c-0.04-2.85,0.45-5.3,1.71-7.56c0.69-1.25,1.53-2.36,2.71-3.19c2.35-1.67,4.9-1.69,7.26-0.07
		c1.19,0.82,2.13,1.87,2.77,3.14c2.4,4.83,2.51,9.69,0.08,14.54c-0.57,1.15-1.42,2.09-2.43,2.87c-2.35,1.8-5.21,1.86-7.67,0.2
		c-1.53-1.03-2.54-2.48-3.27-4.13C400.02,422.61,399.66,420.57,399.71,418.75z M414.48,418.75c0.06-2.29-0.45-4.36-1.36-6.33
		c-0.5-1.09-1.21-2.03-2.11-2.82c-1.96-1.72-4.5-1.72-6.44-0.02c-0.85,0.74-1.52,1.62-2.01,2.63c-1.31,2.67-1.78,5.49-1.36,8.42
		c0.32,2.23,1.1,4.31,2.71,5.97c2.51,2.58,5.71,2.41,7.96-0.12c0.74-0.83,1.31-1.79,1.7-2.84
		C414.17,422.02,414.57,420.38,414.48,418.75z"/>
	<path class="st0" d="M384.58,419.64c0.23,0.95,0.79,1.24,1.21,1.63c2.46,2.26,4.94,4.49,7.41,6.73c0.27,0.25,0.56,0.49,0.8,0.76
		c0.22,0.25,0.2,0.53-0.02,0.79c-0.22,0.25-0.51,0.38-0.78,0.24c-0.38-0.21-0.73-0.51-1.05-0.8c-2.04-1.84-4.06-3.68-6.1-5.52
		c-0.94-0.84-1.88-1.68-2.83-2.5c-0.16-0.14-0.34-0.27-0.59-0.15c-0.25,0.13-0.21,0.37-0.21,0.57c-0.01,1.78-0.01,3.56-0.01,5.34
		c0,0.67,0.01,1.33-0.01,2c-0.03,0.83-0.26,1.14-0.76,1.08c-0.5-0.07-0.68-0.32-0.68-1.2c0-1.19,0.06-2.37,0.07-3.56
		c0.02-4.89,0.02-9.78,0.03-14.68c0-0.52-0.01-1.04,0.01-1.56c0.06-1.73,0.36-2.01,2.14-2.04c2.09-0.03,4.15,0.17,6.14,0.85
		c0.69,0.24,1.4,0.53,2,0.93c2.68,1.77,3.16,5.28,1.1,7.76c-1.4,1.68-3.32,2.43-5.38,2.88
		C386.27,419.36,385.47,419.48,384.58,419.64z M384.52,408.12c-0.37,0-0.74-0.02-1.11,0c-0.71,0.04-0.94,0.22-0.95,0.94
		c-0.03,2.74-0.04,5.48-0.03,8.22c0,0.68,0.28,0.96,0.95,0.96c2.01,0,3.98-0.26,5.84-1.11c0.61-0.28,1.15-0.66,1.64-1.13
		c2.45-2.35,1.82-5.73-1.34-6.95C387.92,408.44,386.24,408.14,384.52,408.12z"/>
	<path class="st0" d="M477.82,379.61c0-2.82,0-5.64,0-8.46c0-0.52-0.01-1.04,0.06-1.55c0.07-0.57,0.54-0.63,1-0.63
		c0.46,0,0.93,0.07,0.98,0.65c0.05,0.59,0.05,1.18,0.05,1.78c0,4.68,0,9.35,0,14.03c0,0.52-0.01,1.04,0.01,1.56
		c0.04,1.02,0.19,1.22,1.13,1.23c2.3,0.02,4.6,0.02,6.9-0.01c0.69-0.01,0.93-0.25,0.94-0.95c0.03-2.08,0.02-4.16,0.02-6.23
		c0-0.74-0.01-1.48,0.01-2.23c0.03-0.85,0.39-1.11,1.31-1c0.41,0.05,0.69,0.24,0.72,0.68c0.02,0.22,0.03,0.44,0.03,0.67
		c0,3.27,0.01,6.53,0,9.8c-0.01,1.22-0.11,1.33-1.23,1.34c-3.56,0.02-7.13,0.02-10.69,0c-1.15-0.01-1.24-0.11-1.25-1.31
		C477.81,385.85,477.82,382.73,477.82,379.61C477.82,379.61,477.82,379.61,477.82,379.61z"/>
	<path class="st0" d="M196.99,429.74c-0.4-0.03-0.63-0.17-0.72-0.49c-0.11-0.39,0.09-0.72,0.21-1.06
		c2.23-6.59,4.46-13.18,6.69-19.77c0.14-0.42,0.31-0.83,0.54-1.21c0.32-0.54,1.18-0.56,1.5-0.04c0.23,0.37,0.41,0.78,0.55,1.2
		c2.25,6.58,4.49,13.17,6.73,19.75c0.09,0.28,0.18,0.57,0.21,0.86c0.03,0.32-0.13,0.56-0.45,0.68c-0.31,0.12-0.63,0.06-0.77-0.22
		c-0.24-0.45-0.41-0.95-0.58-1.43c-0.61-1.82-1.19-3.66-1.82-5.48c-0.43-1.26-0.54-1.32-1.93-1.34c-1.78-0.02-3.56-0.02-5.33,0
		c-1.48,0.02-1.51,0.04-2.03,1.51c-0.64,1.82-1.24,3.64-1.86,5.46c-0.14,0.42-0.3,0.84-0.5,1.23
		C197.35,429.55,197.12,429.64,196.99,429.74z M208.1,419.58c-1-2.85-1.92-5.48-2.85-8.11c-0.15-0.41-0.31-0.82-0.5-1.22
		c-0.06-0.12-0.22-0.18-0.34-0.27c-1.13,2.17-3.1,7.93-3.26,9.6C203.36,419.58,205.56,419.58,208.1,419.58z"/>
	<path class="st0" d="M147.04,429.76c-0.33-0.14-0.63-0.29-0.6-0.63c0.03-0.36,0.15-0.72,0.27-1.07c2.23-6.59,4.46-13.17,6.71-19.76
		c0.23-0.68,0.35-1.55,1.35-1.49c0.84,0.05,0.96,0.84,1.17,1.44c2.28,6.65,4.54,13.31,6.79,19.96c0.29,0.87,0.15,1.39-0.37,1.46
		c-0.71,0.09-0.81-0.47-0.98-0.97c-0.7-2.11-1.43-4.2-2.09-6.32c-0.26-0.82-0.7-1.24-1.58-1.23c-2,0.02-4,0.02-6,0
		c-0.88-0.01-1.32,0.41-1.59,1.23c-0.64,1.97-1.34,3.92-2.03,5.87c-0.15,0.42-0.31,0.83-0.53,1.21
		C147.47,429.63,147.2,429.68,147.04,429.76z M158.34,419.61c-1.12-3.15-2.13-6-3.15-8.84c-0.05-0.14-0.12-0.28-0.23-0.37
		c-0.16-0.14-0.39-0.24-0.54,0c-0.19,0.31-0.36,0.65-0.48,0.99c-0.84,2.37-1.67,4.75-2.5,7.12c-0.12,0.34-0.31,0.68,0.01,1.09
		C153.61,419.61,155.82,419.61,158.34,419.61z"/>
	<path class="st0" d="M37.8,429.19c-0.23,0.19-0.37,0.37-0.55,0.45c-0.3,0.15-0.62,0.05-0.75-0.24c-0.25-0.53-0.45-1.09-0.63-1.65
		c-0.61-1.82-1.23-3.65-1.8-5.48c-0.23-0.75-0.68-1.1-1.45-1.1c-2.07,0.01-4.15,0.01-6.22,0c-0.79,0-1.19,0.41-1.42,1.13
		c-0.68,2.04-1.39,4.06-2.11,6.08c-0.15,0.41-0.35,0.81-0.58,1.18c-0.12,0.2-0.4,0.22-0.59,0.1c-0.17-0.1-0.43-0.32-0.41-0.46
		c0.09-0.58,0.23-1.15,0.42-1.7c2.11-6.24,4.24-12.47,6.37-18.7c0.19-0.56,0.39-1.12,0.68-1.63c0.29-0.53,1.18-0.53,1.51-0.01
		c0.2,0.31,0.35,0.65,0.47,1c0.35,0.97,0.68,1.96,1.02,2.94c1.88,5.53,3.76,11.07,5.64,16.61C37.54,428.2,37.66,428.7,37.8,429.19z
		 M32.82,419.65c0.19-0.46,0.08-0.74-0.02-1.02c-0.95-2.65-1.89-5.29-2.84-7.94c-0.07-0.2-0.18-0.39-0.45-0.41
		c-0.3-0.02-0.38,0.2-0.45,0.39c-1.06,2.84-2.16,5.65-2.98,8.57c-0.02,0.06,0.03,0.14,0.09,0.35
		C28.39,419.74,30.64,419.67,32.82,419.65z"/>
	<path class="st0" d="M482.94,428.97c-0.06,0.43-0.31,0.62-0.59,0.68c-0.18,0.04-0.49-0.06-0.58-0.19c-0.23-0.37-0.39-0.79-0.54-1.2
		c-0.67-1.96-1.33-3.92-1.96-5.9c-0.26-0.81-0.7-1.22-1.59-1.2c-2,0.04-4,0.03-6,0.01c-0.88-0.01-1.33,0.39-1.6,1.21
		c-0.68,2.11-1.42,4.2-2.14,6.3c-0.16,0.48-0.24,1.06-0.93,1.04c-0.5-0.01-0.68-0.6-0.39-1.45c1.68-4.98,3.38-9.95,5.07-14.92
		c0.57-1.68,1.13-3.37,1.71-5.04c0.14-0.41,0.33-0.82,0.56-1.19c0.27-0.42,1.04-0.42,1.38-0.05c0.41,0.46,0.53,1.05,0.72,1.61
		c1.74,5.11,3.49,10.22,5.23,15.33c0.48,1.4,0.95,2.8,1.42,4.21C482.81,428.49,482.89,428.78,482.94,428.97z M474.76,409.99
		c-0.16,0.15-0.4,0.27-0.46,0.44c-1.01,2.84-2.01,5.69-3,8.55c-0.16,0.46,0.01,0.67,0.53,0.67c2.06,0.01,4.12,0.01,6.19,0.01
		C477.84,417.96,475.99,412.52,474.76,409.99z"/>
	<path class="st0" d="M150.92,379.72c0-2.74,0-5.48,0-8.22c0-0.59,0.01-1.18,0.06-1.77c0.05-0.58,0.39-0.78,1.12-0.76
		c0.53,0.02,0.82,0.27,0.84,0.8c0.02,0.59,0.02,1.18,0.02,1.78c0,4.52,0,9.03,0,13.55c0,0.44-0.01,0.89,0,1.33
		c0.03,1.74,0.05,1.78,1.7,1.8c1.93,0.02,3.85,0.01,5.78,0c0.22,0,0.45,0.01,0.67-0.01c0.81-0.06,1.07-0.27,1.08-1.08
		c0.03-2.07,0.01-4.15,0.02-6.22c0-0.81,0.01-1.63,0.04-2.44c0.02-0.58,0.44-0.69,0.92-0.69c0.61,0.01,0.87,0.19,0.92,0.7
		c0.03,0.29,0.03,0.59,0.03,0.89c0,3.11,0.01,6.22,0,9.33c-0.01,1.54-0.03,1.56-1.65,1.57c-3.26,0.01-6.52,0.01-9.78,0
		c-1.75-0.01-1.77-0.02-1.78-1.67C150.91,385.65,150.92,382.69,150.92,379.72z"/>
	<path class="st0" d="M311.95,408.07c-0.82-0.06-1.68,0.16-2.51,0.5c-1.47,0.61-2.5,1.6-2.63,3.27c-0.13,1.62,0.46,2.93,1.84,3.79
		c0.81,0.51,1.7,0.91,2.58,1.3c1.22,0.54,2.49,0.98,3.69,1.54c0.87,0.41,1.72,0.89,2.49,1.46c3.17,2.35,2.15,6.73,0.11,8.36
		c-3.01,2.41-9.28,2.24-11.87-2.29c-0.07-0.13-0.13-0.27-0.15-0.41c-0.06-0.34,0.13-0.56,0.4-0.71c0.22-0.12,0.45-0.09,0.6,0.1
		c0.33,0.4,0.59,0.85,0.93,1.24c1.91,2.22,5.75,2.87,8.37,1.56c2.3-1.16,3.1-4.96,0.77-6.77c-0.77-0.6-1.62-1.03-2.51-1.4
		c-1.5-0.63-3.01-1.25-4.5-1.92c-1.16-0.52-2.21-1.22-3.03-2.21c-1.48-1.77-1.53-4.32-0.19-6.18c2.25-3.1,9.16-3.98,11.59,0.71
		c0.1,0.2,0.21,0.39,0.28,0.6c0.1,0.31,0.03,0.6-0.24,0.78c-0.27,0.17-0.58,0.17-0.8-0.09c-0.23-0.28-0.44-0.6-0.62-0.92
		C315.54,408.65,313.96,408.04,311.95,408.07z"/>
	<path class="st0" d="M15.04,384.85c0,1.93,0,3.86,0,5.79c0,0.75-0.03,1.49-0.45,2.15c-0.6,0.94-1.44,1.48-2.58,1.48
		c-1.71,0-3.42,0.06-5.12-0.01c-3.58-0.15-6.42-2.96-6.63-6.57c-0.1-1.7-0.01-3.41-0.02-5.12c0-0.56,0.29-0.79,0.81-0.84
		c0.94-0.08,1.25,0.16,1.26,1.05c0.02,1.48,0.01,2.97,0.01,4.45c0,1.59,0.66,2.87,1.85,3.88c0.69,0.59,1.48,1.01,2.41,1.03
		c1.71,0.04,3.41,0.06,5.12,0.03c0.88-0.02,1.22-0.37,1.23-1.24c0.04-2.08,0.01-4.16,0.03-6.23c0.02-2,0.03-4.01,0.09-6.01
		c0.02-0.78,0.85-1.16,1.6-0.81c0.33,0.16,0.37,0.45,0.37,0.74c0.02,1.34,0.02,2.67,0.02,4.01
		C15.04,383.37,15.04,384.11,15.04,384.85z"/>
	<path class="st0" d="M332.76,406.77c2.94-0.01,5.13,1.36,6.2,3.86c0.13,0.31,0.06,0.59-0.21,0.77c-0.27,0.18-0.59,0.2-0.81-0.04
		c-0.29-0.33-0.5-0.73-0.75-1.1c-0.98-1.49-2.36-2.17-4.13-2.19c-1.37-0.02-2.64,0.25-3.82,0.98c-2.2,1.36-2.23,4.48-0.63,5.98
		c0.71,0.67,1.53,1.17,2.42,1.54c1.5,0.63,3.02,1.23,4.51,1.88c0.95,0.42,1.83,0.95,2.67,1.57c2.81,2.1,2.31,6.87-0.47,8.63
		c-3.63,2.29-9.13,1.18-11.23-2.37c-0.15-0.25-0.28-0.53-0.31-0.81c-0.02-0.17,0.14-0.41,0.29-0.54c0.16-0.15,0.42-0.2,0.6,0
		c0.29,0.33,0.54,0.7,0.82,1.04c1.9,2.38,5.7,3.18,8.48,1.9c2.16-0.99,3.49-4.79,0.86-6.89c-0.76-0.61-1.63-1.02-2.52-1.38
		c-1.44-0.59-2.88-1.17-4.31-1.8c-1.09-0.48-2.05-1.17-2.91-2.01c-2.53-2.49-1.49-6.36,1.02-7.84
		C329.84,407.18,331.23,406.73,332.76,406.77z"/>
	<path class="st0" d="M1.45,417.89c-0.01,2.46,0.31,4.12,0.95,5.72c0.42,1.04,1.02,1.96,1.77,2.8c2.64,2.95,7.09,2.25,8.86-0.93
		c0.32-0.58,0.62-1.18,0.96-1.75c0.16-0.27,0.43-0.42,0.75-0.3c0.4,0.15,0.62,0.52,0.48,0.88c-0.97,2.56-2.65,4.43-5.32,5.27
		c-2.54,0.8-4.67-0.04-6.5-1.8c-1.53-1.48-2.41-3.34-2.91-5.4c-0.82-3.42-0.61-6.76,0.69-10.03c0.67-1.68,1.69-3.1,3.12-4.25
		c2.54-2.03,5.97-1.67,8.21,0.17c1.17,0.96,1.98,2.19,2.49,3.61c0.15,0.41,0.06,0.72-0.34,0.91c-0.4,0.2-0.75,0.03-0.96-0.3
		c-0.27-0.44-0.48-0.92-0.68-1.4c-1.21-2.86-5.86-4.25-8.56-1.11c-0.83,0.97-1.47,2.04-1.96,3.21
		C1.86,414.74,1.45,416.91,1.45,417.89z"/>
	<path class="st0" d="M67.93,418.46c0.05-2.72,0.56-5.38,2.06-7.79c0.51-0.83,1.13-1.56,1.85-2.21c2.86-2.62,6.79-2.01,9.07,0.2
		c0.92,0.9,1.55,1.98,2.01,3.17c0.14,0.38,0.08,0.75-0.3,0.96c-0.38,0.21-0.74,0.08-0.95-0.29c-0.26-0.45-0.47-0.92-0.7-1.39
		c-0.73-1.52-1.95-2.36-3.57-2.74c-1.83-0.43-3.37,0.04-4.69,1.34c-0.97,0.95-1.67,2.08-2.18,3.33c-1.31,3.21-1.47,6.48-0.47,9.8
		c0.34,1.15,0.94,2.17,1.66,3.13c2.43,3.23,7.14,3.17,9.3-0.54c0.33-0.58,0.61-1.18,0.95-1.76c0.17-0.28,0.45-0.36,0.77-0.21
		c0.29,0.14,0.45,0.39,0.44,0.71c0,0.14-0.04,0.3-0.09,0.43c-0.95,2.2-2.45,3.89-4.69,4.81c-2.26,0.93-4.37,0.49-6.28-0.96
		c-1.32-1.01-2.28-2.32-2.94-3.85C68.33,422.66,67.95,420.63,67.93,418.46z"/>
	<path class="st0" d="M361.26,418.68c0-2.89-0.01-5.78,0-8.67c0-0.59,0.01-1.19,0.1-1.77c0.13-0.85,0.61-1.37,1.47-1.42
		c2.76-0.16,5.48,0.04,8.04,1.24c4.21,1.97,3.63,7,1.03,9.03c-1.38,1.08-2.92,1.77-4.61,2.08c-1.16,0.22-2.35,0.3-3.53,0.42
		c-0.91,0.1-1.05,0.19-1.06,1.06c-0.02,2.3-0.01,4.6-0.02,6.89c0,0.59,0,1.19-0.09,1.77c-0.04,0.29-0.33,0.47-0.66,0.49
		c-0.34,0.01-0.59-0.17-0.66-0.47c-0.09-0.35-0.1-0.73-0.1-1.1c0-1.71,0.01-3.41,0.02-5.11c0-1.48,0-2.97,0-4.45
		C361.22,418.68,361.24,418.68,361.26,418.68z M364.54,408.12c-0.3,0-0.59,0-0.89,0c-0.51,0.01-0.87,0.22-0.88,0.77
		c-0.03,2.81-0.05,5.62-0.05,8.43c0,0.7,0.25,0.93,0.95,0.93c1.86,0.01,3.69-0.24,5.42-0.96c0.75-0.31,1.46-0.72,2.05-1.3
		c2.37-2.32,1.82-5.52-1.19-6.85c-0.34-0.15-0.69-0.27-1.05-0.36C367.47,408.41,366.03,408.09,364.54,408.12z"/>
	<path class="st0" d="M296.89,379.8c0,3.19,0,6.37,0,9.56c0,0.48-0.14,0.86-0.72,0.91c-0.82,0.07-1.12-0.14-1.17-0.9
		c-0.02-0.3-0.01-0.59-0.01-0.89c0-5.85,0-11.71,0-17.56c0-0.37-0.01-0.74,0.02-1.11c0.05-0.62,0.37-0.85,1.05-0.82
		c0.54,0.02,0.81,0.29,0.83,0.82c0.02,0.59,0.02,1.19,0.02,1.78c0,2.74,0,5.48,0,8.22C296.9,379.8,296.89,379.8,296.89,379.8z"/>
	<path class="st0" d="M342.43,394.16c0.13,0.05,0.28,0.08,0.38,0.17c0.33,0.29,0.65,0.59,0.95,0.91c0.62,0.65,0.57,0.93-0.17,1.59
		c-0.4,0.36-0.76,0.36-1.14-0.02c-0.21-0.21-0.42-0.41-0.62-0.62c-0.78-0.8-0.74-1.21,0.19-1.87
		C342.14,394.24,342.29,394.21,342.43,394.16z"/>
	<path class="st0" d="M509.94,394.77c-0.12,0.52-0.55,0.81-0.97,1.09c-0.29,0.19-0.54-0.02-0.76-0.21c-0.22-0.19-0.43-0.39-0.63-0.6
		c-0.77-0.79-0.64-1.51,0.38-1.98c0.12-0.05,0.31-0.09,0.4-0.03c0.64,0.37,1.12,0.9,1.54,1.5
		C509.94,394.59,509.92,394.68,509.94,394.77z"/>
	<path class="st0" d="M336.48,395.45c0.02-0.1,0.02-0.18,0.06-0.23c1.09-1.4,1.13-1.4,2.28-0.15c0.15,0.16,0.3,0.33,0.44,0.49
		c0.24,0.27,0.16,0.53-0.03,0.79c-0.65,0.88-1.05,0.94-1.77,0.26c-0.22-0.2-0.43-0.41-0.62-0.63
		C336.71,395.81,336.6,395.62,336.48,395.45z"/>
	<path class="st0" d="M430.17,394.54c0.1-0.21,0.13-0.37,0.22-0.47c0.98-1.1,1.04-1.1,2.05-0.07c0.1,0.11,0.21,0.21,0.31,0.32
		c0.54,0.6,0.52,0.84-0.11,1.46c-0.45,0.45-0.75,0.51-1.13,0.15C431.04,395.49,430.6,395,430.17,394.54z"/>
	<path class="st0" d="M410.39,371.18c0.14,0.02,0.31,0,0.41,0.07c0.29,0.22,0.57,0.46,0.83,0.72c0.76,0.77,0.74,1.05-0.04,1.78
		c-0.41,0.38-0.76,0.34-1.13-0.02c-0.26-0.26-0.55-0.49-0.77-0.78c-0.17-0.22-0.32-0.48-0.38-0.74
		C409.26,372,410.13,371.23,410.39,371.18z"/>
	<path class="st0" d="M404.47,372.2c0.22-0.24,0.45-0.52,0.7-0.77c0.29-0.28,0.63-0.41,0.97-0.1c0.38,0.35,0.75,0.71,1.11,1.08
		c0.32,0.32,0.25,0.65-0.04,0.97c-0.86,0.93-1.06,0.81-1.76,0.09c-0.26-0.26-0.52-0.52-0.76-0.8
		C404.6,372.56,404.57,372.4,404.47,372.2z"/>
	<path class="st0" d="M313.92,372.25c0.12-0.17,0.23-0.36,0.39-0.51c0.79-0.75,0.94-0.76,1.62-0.12c0.21,0.2,0.42,0.41,0.61,0.63
		c0.46,0.51,0.43,0.73-0.1,1.3c-0.6,0.63-0.82,0.66-1.43,0.07C314.59,373.21,314.09,372.87,313.92,372.25z"/>
	<path class="st0" d="M8.9,372.85c0.02,0.26-0.6,1.01-0.95,1.14c-0.32,0.11-0.56-0.05-0.77-0.26c-0.21-0.2-0.43-0.4-0.63-0.61
		c-0.72-0.75-0.61-1.34,0.31-1.87c0.23-0.13,0.45-0.12,0.61,0.01c0.44,0.38,0.86,0.79,1.27,1.21C8.83,372.56,8.85,372.72,8.9,372.85
		z"/>
	<path class="st0" d="M160.42,393.01c0.57,0.18,0.89,0.71,1.32,1.1c0.22,0.2,0.4,0.44,0.34,0.76c-0.05,0.29-0.82,1-1.1,1.01
		c-0.13,0.01-0.3-0.03-0.4-0.11c-0.33-0.28-0.66-0.58-0.96-0.9c-0.58-0.62-0.27-1.62,0.56-1.84
		C160.26,393.01,160.33,393.02,160.42,393.01z"/>
	<path class="st0" d="M489.76,374.02c-0.14-0.03-0.31-0.02-0.4-0.1c-0.33-0.28-0.66-0.58-0.96-0.9c-0.61-0.64-0.33-1.58,0.52-1.83
		c0.07-0.02,0.14-0.04,0.21-0.03c0.37,0.05,1.62,1.21,1.71,1.61c0.02,0.07,0.01,0.15-0.02,0.22
		C490.59,373.46,490.24,373.81,489.76,374.02z"/>
	<path class="st0" d="M353.04,372.18c0.21-0.23,0.44-0.5,0.69-0.76c0.3-0.3,0.65-0.35,0.98-0.08c0.39,0.33,0.74,0.71,1.09,1.08
		c0.31,0.33,0.22,0.64-0.05,0.96c-0.71,0.83-0.97,0.85-1.75,0.08C353.63,373.11,353.19,372.8,353.04,372.18z"/>
	<path class="st0" d="M190.07,400.14c0.41,0.04,0.68,0.42,1,0.71c0.78,0.72,0.75,1.11-0.1,1.72c-0.12,0.08-0.25,0.18-0.39,0.19
		c-0.35,0.02-1.72-1.16-1.81-1.53c-0.01-0.06,0.01-0.13,0.03-0.2C188.9,400.72,189.7,400.12,190.07,400.14z"/>
	<path class="st0" d="M186.91,401.69c-0.12,0.46-0.5,0.7-0.85,0.96c-0.27,0.2-0.55,0.12-0.79-0.1c-0.27-0.25-0.55-0.48-0.81-0.73
		c-0.47-0.47-0.5-0.71-0.15-1.11c0.55-0.64,0.94-0.72,1.47-0.29c0.34,0.28,0.65,0.59,0.96,0.9
		C186.83,401.41,186.86,401.56,186.91,401.69z"/>
	<path class="st0" d="M173.89,289.66c0.25-0.06,0.41-0.21,0.44-0.47l0,0c-0.26,0.04-0.4,0.2-0.46,0.45
		C173.88,289.64,173.89,289.66,173.89,289.66z"/>
</g>
</svg>
